<svg width="31" height="32" viewBox="0 0 31 32" fill="none" xmlns="http://www.w3.org/2000/svg">
<path d="M15.0428 20.1946L7.56144 12.472C7.47097 12.3788 7.4093 12.26 7.38424 12.1307C7.35918 12.0013 7.37187 11.8672 7.42068 11.7453C7.4695 11.6234 7.55226 11.5192 7.65848 11.4458C7.7647 11.3725 7.88961 11.3333 8.0174 11.3333H22.9827C23.1104 11.3333 23.2354 11.3725 23.3416 11.4458C23.4478 11.5192 23.5306 11.6234 23.5794 11.7453C23.6282 11.8672 23.6409 12.0013 23.6158 12.1307C23.5908 12.26 23.5291 12.3788 23.4386 12.472L15.956 20.1946C15.8349 20.3196 15.6706 20.3898 15.4994 20.3898C15.3281 20.3898 15.1639 20.3196 15.0428 20.1946Z" fill="black"/>
</svg>
