<svg width="31" height="26" viewBox="0 0 31 26" fill="none" xmlns="http://www.w3.org/2000/svg">
<path d="M15.5 0C16.699 0 17.8489 0.661205 18.6967 1.83816C19.5445 3.01511 20.0208 4.6114 20.0208 6.27586C20.0208 7.94032 19.5445 9.53661 18.6967 10.7136C17.8489 11.8905 16.699 12.5517 15.5 12.5517C14.301 12.5517 13.1511 11.8905 12.3033 10.7136C11.4555 9.53661 10.9792 7.94032 10.9792 6.27586C10.9792 4.6114 11.4555 3.01511 12.3033 1.83816C13.1511 0.661205 14.301 0 15.5 0ZM6.45833 4.48276C7.18167 4.48276 7.85333 4.75172 8.43458 5.23586C8.24083 7.8 8.78333 10.3462 9.89417 12.3366C9.24833 14.0579 7.95667 15.2414 6.45833 15.2414C5.43062 15.2414 4.445 14.6746 3.71829 13.6658C2.99159 12.657 2.58333 11.2888 2.58333 9.86207C2.58333 8.43539 2.99159 7.06714 3.71829 6.05832C4.445 5.04951 5.43062 4.48276 6.45833 4.48276ZM24.5417 4.48276C25.5694 4.48276 26.555 5.04951 27.2817 6.05832C28.0084 7.06714 28.4167 8.43539 28.4167 9.86207C28.4167 11.2888 28.0084 12.657 27.2817 13.6658C26.555 14.6746 25.5694 15.2414 24.5417 15.2414C23.0433 15.2414 21.7517 14.0579 21.1058 12.3366C22.232 10.3183 22.7547 7.77525 22.5654 5.23586C23.1467 4.75172 23.8183 4.48276 24.5417 4.48276ZM7.10417 22.8621C7.10417 19.1503 10.8629 16.1379 15.5 16.1379C20.1371 16.1379 23.8958 19.1503 23.8958 22.8621V26H7.10417V22.8621ZM0 26V23.3103C0 20.8179 2.44125 18.72 5.74792 18.1103C4.98583 19.3297 4.52083 21.0152 4.52083 22.8621V26H0ZM31 26H26.4792V22.8621C26.4792 21.0152 26.0142 19.3297 25.2521 18.1103C28.5587 18.72 31 20.8179 31 23.3103V26Z" fill="#979797"/>
</svg>
