<svg width="31" height="38" viewBox="0 0 31 38" fill="none" xmlns="http://www.w3.org/2000/svg">
<path d="M15.5 6.33337C16.8703 6.33337 18.1845 7.00063 19.1534 8.18836C20.1223 9.37609 20.6667 10.987 20.6667 12.6667C20.6667 14.3464 20.1223 15.9573 19.1534 17.1451C18.1845 18.3328 16.8703 19 15.5 19C14.1297 19 12.8156 18.3328 11.8466 17.1451C10.8777 15.9573 10.3334 14.3464 10.3334 12.6667C10.3334 10.987 10.8777 9.37609 11.8466 8.18836C12.8156 7.00063 14.1297 6.33337 15.5 6.33337ZM15.5 22.1667C21.2092 22.1667 25.8334 25.0009 25.8334 28.5V31.6667H5.16669V28.5C5.16669 25.0009 9.79085 22.1667 15.5 22.1667Z" fill="#979797"/>
</svg>
