<svg width="21" height="26" viewBox="0 0 21 26" fill="none" xmlns="http://www.w3.org/2000/svg">
<path d="M10.3333 0C11.7036 0 13.0178 0.66726 13.9867 1.85499C14.9557 3.04272 15.5 4.65363 15.5 6.33333C15.5 8.01304 14.9557 9.62395 13.9867 10.8117C13.0178 11.9994 11.7036 12.6667 10.3333 12.6667C8.96305 12.6667 7.64889 11.9994 6.67995 10.8117C5.71101 9.62395 5.16667 8.01304 5.16667 6.33333C5.16667 4.65363 5.71101 3.04272 6.67995 1.85499C7.64889 0.66726 8.96305 0 10.3333 0ZM10.3333 15.8333C16.0425 15.8333 20.6667 18.6675 20.6667 22.1667V25.3333H0V22.1667C0 18.6675 4.62417 15.8333 10.3333 15.8333Z" fill="white"/>
</svg>
