<svg width="139" height="136" viewBox="0 0 139 136" fill="none" xmlns="http://www.w3.org/2000/svg">
<g filter="url(#filter0_d_116_980)">
<ellipse cx="69.5" cy="64" rx="65.5" ry="64" fill="white"/>
</g>
<g clip-path="url(#clip0_116_980)">
<mask id="mask0_116_980" style="mask-type:luminance" maskUnits="userSpaceOnUse" x="15" y="13" width="108" height="101">
<path d="M123 13H15V114H123V13Z" fill="white"/>
</mask>
<g mask="url(#mask0_116_980)">
<path d="M71.1274 34.8502C76.4877 35.4997 81.6454 37.4534 85.9809 40.4688C86.8526 41.1103 87.7498 41.7055 88.535 42.4464C91.9039 45.3597 94.5912 48.9438 96.3487 52.9109C97.6739 55.868 98.435 59.0133 98.7071 62.2077C99.6454 62.315 100.557 62.4913 101.417 62.8704C103.62 63.7889 105.255 65.6459 105.921 67.8024C106.294 69.0696 106.426 70.4202 106.165 71.7192C105.746 74.2057 104.22 76.508 102.002 77.9382C100.452 78.9522 98.5313 79.5327 96.6364 79.4863C95.9093 79.4797 95.2134 79.2743 94.492 79.2491C94.2298 79.5367 94.0342 79.8906 93.8173 80.21C91.1726 84.1361 87.5003 87.4351 83.2384 89.8064C79.2557 92.0239 74.7487 93.4063 70.1339 93.8252C68.5635 93.9179 67.0342 94.0969 65.4595 93.9233C58.1334 93.6184 50.9929 90.8164 45.5957 86.1786C41.4813 82.6595 38.3901 78.1158 36.7318 73.1374C35.7269 70.1087 35.2266 66.9369 35.3046 63.7651C35.3783 58.4182 37.0805 53.0845 40.115 48.5541C42.822 44.4704 46.6219 41.0547 51.0567 38.6357C55.2562 36.3453 60.0354 34.9668 64.8883 34.6765C66.9661 34.4817 69.0609 34.6275 71.1274 34.8502Z" fill="black"/>
<path d="M66.4488 35.4082C73.3186 35.224 80.2422 37.3567 85.6975 41.2562C86.6258 41.7943 87.3586 42.514 88.1579 43.1966C91.6063 46.1962 94.2808 49.9499 95.9433 54.0681C96.9964 56.6673 97.6242 59.3964 97.8652 62.1653C96.6052 62.2634 95.4076 62.4754 94.268 63.0109C93.9576 63.1475 94.0002 63.667 94.3644 63.7041C94.6975 63.7346 95.0702 63.504 95.3905 63.4125C97.4627 62.7008 99.8296 62.836 101.737 63.9003C103.394 64.799 104.585 66.3073 105.123 68.0172C105.492 69.1107 105.503 70.3248 105.373 71.4568C105.018 73.7564 103.622 75.9275 101.584 77.2636C99.3576 78.7653 96.3161 79.2041 93.7989 78.0854C93.3496 77.8958 92.957 77.6109 92.512 77.416C92.0939 77.2715 91.8203 77.7858 92.1293 78.0456C92.5786 78.4114 93.1696 78.6447 93.6883 78.9151C90.8339 83.4416 86.6797 87.2257 81.7247 89.7136C77.4444 91.8755 72.5915 93.0975 67.7244 93.1797C63.8083 93.2751 59.8824 92.6442 56.2143 91.3612C51.917 89.8714 48.0165 87.4603 44.8233 84.3893C41.6102 81.2917 39.1654 77.5128 37.7083 73.4184C35.588 67.5016 35.5951 60.9578 37.7466 55.0489C39.3128 50.6669 42.0383 46.6707 45.5943 43.4657C49.7995 39.6577 55.1825 37.0319 60.9198 35.9543C62.734 35.6203 64.5964 35.3923 66.4488 35.4082Z" fill="#ECB995"/>
<path d="M100.752 66.6016C101.125 66.5883 101.24 67.1052 100.945 67.2616C100.422 67.5042 99.8367 67.6288 99.2953 67.8382C98.4704 68.1086 97.6965 68.4691 96.9312 68.8615C97.5392 69.1716 98.1869 69.4897 98.7326 69.89C99.0983 70.1671 99.42 70.4666 99.488 70.9239C99.4512 71.3997 99.1011 71.7921 98.7156 72.0757C97.885 72.6934 96.7427 73.0274 95.769 73.4356C95.5209 73.5178 95.1411 73.6994 94.9767 73.4012C94.8321 73.1705 94.9682 72.989 95.1992 72.8882C96.1417 72.4508 97.3054 72.1433 98.1458 71.5416C98.34 71.3905 98.6263 71.1784 98.6575 70.9292C98.0806 70.183 96.8972 69.7906 96.0737 69.3267C95.742 69.0987 95.7491 68.7647 96.051 68.5142C97.0814 67.7666 98.4576 67.2868 99.6751 66.8733C100.018 66.7633 100.388 66.6148 100.752 66.6016Z" fill="black"/>
<path d="M75.7054 59.3486C77.5394 60.3307 79.0205 61.9239 79.7391 63.7875C80.5498 65.6909 80.5498 67.8461 79.8156 69.7693C79.6682 70.1524 79.4074 70.4612 78.9255 70.4016C76.7882 70.3048 74.6764 70.4201 72.539 70.4758C71.1175 70.6203 69.6987 70.7608 68.2871 70.9781C66.806 71.2194 65.3646 71.5256 63.8962 71.784C63.2839 71.7681 63.1493 71.2233 62.8814 70.8125C61.1721 67.7705 61.6455 63.8564 64.0535 61.2585C65.4411 59.7316 67.4324 58.6381 69.557 58.3346C71.6447 57.9833 73.8685 58.3637 75.7054 59.3486Z" fill="black"/>
<path d="M71.2677 58.9748C73.3157 58.9735 75.3496 59.7741 76.8491 61.0664C78.2693 62.2925 79.192 63.9639 79.4726 65.7506C79.6427 67.0774 79.5222 68.4227 78.9836 69.6686C78.8277 69.6514 78.6732 69.6355 78.5187 69.6196C78.7554 68.941 78.9057 68.2888 78.7157 67.5784C78.4436 66.1456 77.1935 64.9765 75.6557 64.7419C74.8975 64.6597 74.1477 64.6876 73.449 65.0004C72.3123 65.4709 71.4874 66.469 71.2776 67.6142C71.1231 68.3723 71.2748 69.1279 71.622 69.8197C69.9992 69.9576 68.3991 70.1882 66.8046 70.5063C65.8493 70.668 64.911 70.9358 63.9472 71.0524C62.9055 69.4579 62.4109 67.4644 62.7723 65.6141C63.0671 63.8433 64.0337 62.1825 65.4595 60.9856C67.0299 59.6614 69.1502 58.9099 71.2677 58.9748Z" fill="white"/>
<path d="M47.743 61.2559C49.5161 61.4004 51.2183 62.1413 52.4839 63.3091C53.8261 64.5378 54.6879 66.2476 54.7871 68.0065C54.9005 69.43 54.5617 70.8576 53.8077 72.0982C53.6476 72.3474 53.4009 72.631 53.0976 72.7225C52.6696 72.8298 52.1636 72.7013 51.737 72.6125C50.5054 72.3341 49.2666 72.1022 48.0123 71.9259C46.1868 71.8145 44.3159 71.8079 42.4904 71.9352C41.8101 71.9776 41.1042 72.1114 40.4268 72.0664C40.0979 71.9232 39.9024 71.5097 39.779 71.2088C39.3014 70.0384 39.0732 68.7262 39.3085 67.4816C39.5948 65.4881 40.8123 63.659 42.5797 62.5178C44.075 61.5528 45.9331 61.0823 47.743 61.2559Z" fill="black"/>
<path d="M49.0838 62.2726C50.8965 62.7908 52.44 64.0182 53.2762 65.6101C53.9339 66.8534 54.2046 68.3299 53.8871 69.6952C53.7028 70.5169 53.4179 71.3997 52.8765 72.081L52.2898 71.9895C52.8751 71.3944 53.2691 70.6839 53.2564 69.8582C53.3102 68.4678 52.2586 67.2099 50.8214 66.8839C49.2978 66.4955 47.6282 67.3239 47.0641 68.6918C46.7027 69.4778 46.792 70.2956 47.1109 71.0763C46.0337 71.1147 44.982 71.0272 43.9091 71.1267C42.8731 71.2128 41.8356 71.2751 40.8009 71.3652C40.7074 71.2141 40.6124 71.067 40.5331 70.908C39.5055 68.5632 40.1178 65.7744 42.0042 63.9678C43.7957 62.2209 46.612 61.5303 49.0838 62.2726Z" fill="white"/>
<path d="M56.8124 52.4152C57.1328 52.4059 57.2164 52.6405 57.188 52.8977C57.1172 53.518 57.0789 54.194 56.8592 54.7838C56.6707 54.8355 56.4822 54.8607 56.288 54.8925C56.1293 54.2563 56.2866 53.5379 56.3887 52.8924C56.4397 52.6657 56.4978 52.386 56.8124 52.4152ZM59.7576 53.2476C59.7619 53.6731 59.7066 54.0906 59.6627 54.5134C65.5715 54.5823 71.4718 54.5638 77.3806 54.6128C77.6825 54.6181 77.9419 54.7268 78.2154 54.8302C78.1318 55.0263 78.1843 55.3378 77.898 55.3723C76.757 55.5459 75.548 55.4412 74.3915 55.4889C71.9324 55.5711 69.472 55.6202 67.0129 55.6917C64.5992 55.7182 62.1926 55.8574 59.7775 55.8799C59.3112 55.9316 58.92 55.5194 58.757 55.1549C58.7598 54.5598 58.9016 53.9421 59.049 53.3655C59.2304 53.0368 59.4501 53.1442 59.7576 53.2476ZM54.5206 53.9806C54.505 54.6261 54.5135 55.4134 54.1975 56.0006C53.7411 56.1994 53.1883 56.2378 52.6965 56.3279C49.0611 56.9509 45.4228 57.5673 41.7888 58.1955C41.1879 58.287 40.5557 58.4805 39.9477 58.4659C39.575 58.4023 39.4757 57.9689 39.8244 57.8019C40.278 57.615 40.8094 57.5712 41.2885 57.4599C45.4129 56.5718 49.5302 55.6586 53.6532 54.7666C53.7113 54.5134 53.7666 54.2616 53.8332 54.011C54.0614 53.9832 54.291 53.9792 54.5206 53.9806Z" fill="black"/>
<path d="M65.58 75.8665C65.9102 75.8917 66.0307 76.2271 65.9088 76.4855C65.7118 76.9587 65.4609 77.412 65.2512 77.8812C64.055 80.442 62.4789 82.796 60.7384 85.0613C60.5386 85.3038 60.3317 85.5861 60.0567 85.7598C59.6357 85.8632 59.1907 85.8592 58.8307 85.6034C57.5381 84.7445 56.4028 83.7265 55.3866 82.5893C54.3902 81.5514 53.4746 80.4553 52.7135 79.2531C52.5647 78.9721 52.3535 78.6593 52.5449 78.3505C52.6866 78.1437 53.0013 78.0854 53.2337 78.0125C54.8112 77.6029 56.3787 77.1536 57.9661 76.7811C59.6357 76.4047 61.338 76.1555 63.0487 76.0243C63.8849 75.9527 64.7409 75.8361 65.58 75.8665Z" fill="black"/>
<path d="M65.0046 76.6233C63.7346 79.4372 62.0282 82.0259 60.1375 84.5084C60.0071 84.6595 59.8356 84.8836 59.6187 84.918C59.3098 84.9909 59.0943 84.804 58.8562 84.6542C57.6515 83.7887 56.6211 82.7734 55.6332 81.7011C54.7517 80.7919 53.9494 79.8017 53.2819 78.744C55.4008 78.2152 57.5197 77.6002 59.6768 77.233C61.4414 76.903 63.2216 76.7996 65.0046 76.6233Z" fill="#8F2E45"/>
<path d="M72.9827 24.6799C73.3654 24.5341 73.6715 24.7501 73.8005 25.0815C74.1576 26.0941 73.9337 27.2592 73.5652 28.244C74.4836 27.7682 75.463 27.4236 76.5132 27.3255C78.8334 27.0697 81.1195 27.6356 83.1562 28.6589C84.8202 29.4966 86.1992 30.6166 87.5287 31.8586C88.8893 33.1389 90.5433 34.4048 92.3929 34.9906C93.4616 35.3485 94.6337 35.3737 95.7194 35.0701C96.0085 35.0158 96.455 34.8488 96.6874 35.0874C96.9411 35.2849 96.7994 35.6467 96.7455 35.9039C96.258 37.4308 95.5238 38.8411 94.105 39.7941C95.9688 40.5191 97.5165 41.8379 98.452 43.512C99.4398 45.2828 99.9132 47.3227 99.848 49.3175C99.8735 50.7265 99.5773 52.1036 99.1153 53.4384C100.235 54.5372 100.871 56.0363 101.039 57.5327C101.238 59.3459 100.822 61.2798 99.9345 62.8995C99.8169 63.1407 99.5646 63.0559 99.335 63.0585C98.7198 62.9962 98.1061 62.9565 97.4854 62.9856C96.669 63.0095 95.8583 63.2481 95.1043 63.5291C94.8094 63.6272 94.5501 63.7465 94.2269 63.6855C93.1753 63.5065 92.3065 62.9565 91.2789 62.6437C91.7268 63.2189 92.1775 63.8074 92.5403 64.4344C92.6466 64.6332 92.777 64.8651 92.7827 65.0905C92.7543 65.4033 92.2894 65.5146 92.1165 65.2164C91.5567 64.2581 90.9515 63.3409 90.1932 62.5045C89.8219 62.1665 90.2485 61.6774 90.6836 61.7556C91.2846 61.8444 91.8614 62.1082 92.4383 62.2858C91.938 61.6138 91.4235 60.9179 90.8154 60.3268C90.5178 60.0338 90.1365 59.8151 89.8559 59.509C89.8261 59.3234 89.8843 59.1392 89.9353 58.9615C90.6099 57.0781 90.5575 54.9666 90.0543 53.0526C89.6263 51.4568 88.9077 49.9497 87.7526 48.6959C87.017 48.4029 86.2913 48.0994 85.6139 47.6978C84.0109 46.7978 82.6743 45.5651 81.1054 44.6373C79.0573 43.394 76.2709 43.3052 74.0896 44.2927C73.8728 44.3696 73.6417 44.3497 73.5808 44.1084C73.3852 43.7506 73.6517 43.5226 73.8387 43.235C74.5191 42.3496 75.2263 41.4814 75.9463 40.6238C74.9258 41.1646 73.9989 41.8419 73.1598 42.6067C72.78 42.946 72.498 43.3503 72.24 43.7758C72.0033 43.8049 71.7694 43.8367 71.5299 43.846C71.1954 43.4656 71.1076 43.0335 70.6243 42.7605C69.7313 42.2091 68.4458 42.27 67.4395 42.441C64.7665 42.9407 62.1387 43.7811 59.3622 43.8566C57.762 43.8884 56.2002 43.561 54.8665 42.7101C53.8176 43.3741 52.7093 43.8924 51.4521 44.1045C49.4381 44.4544 47.2824 44.2503 45.3151 43.7532C44.238 44.5591 43.5009 45.5466 42.6378 46.5354C41.7718 47.5838 40.9115 48.6892 40.2595 49.8676C40.1263 50.0783 40.0044 50.3567 39.789 50.5025C39.1923 50.8444 38.5148 51.0207 37.8189 51.0618C36.6269 51.1453 35.3428 50.9743 34.3521 50.3063C33.4805 49.7284 32.9731 48.8324 32.7846 47.8621C32.5266 46.5645 32.725 45.1781 33.2112 43.9454C33.3132 43.6459 33.7157 43.5292 33.9028 43.8195C34.2203 44.4146 34.3578 44.9793 35.0948 45.247C35.7553 45.4392 36.566 45.0999 37.1811 44.8719C35.8006 43.7015 35.2181 41.9453 35.4307 40.2355C35.7453 37.5607 37.3257 34.9906 39.3014 33.078C40.9143 31.4834 42.9709 30.3687 45.257 29.8664C46.1499 29.6795 47.1123 29.4475 48.0293 29.4979C48.3638 29.4992 48.4672 29.9578 48.2065 30.1341C46.9705 31.1706 46.5524 32.9123 46.9422 34.3928C47.4113 33.6439 47.8592 32.8951 48.4616 32.2297C50.6386 29.7577 54.0217 28.3355 57.3765 27.9683C58.6961 27.7801 60.0142 27.8079 61.3422 27.7112C64.6474 27.6343 67.9696 27.2181 70.9687 25.8423C71.6901 25.5282 72.2683 24.99 72.9827 24.6799Z" fill="black"/>
<path d="M73.0876 25.4871C73.2987 26.4255 73.0649 27.4527 72.6326 28.3103C72.5065 28.5979 72.1408 28.9399 72.3109 29.2567C72.4044 29.3879 72.6638 29.5483 72.8282 29.4502C73.388 29.1824 73.8983 28.8352 74.4836 28.6059C75.7422 28.0531 77.1227 27.918 78.4975 28.0558C80.965 28.3143 83.1973 29.3441 85.098 30.8114C86.2616 31.673 87.2055 32.7294 88.3465 33.6108C89.5469 34.5452 90.8849 35.3737 92.3943 35.7938C93.5608 36.1424 94.7542 36.1278 95.9291 35.8203C95.5465 36.8661 95.0362 38.0007 94.1546 38.7682C93.7776 39.1115 93.317 39.3129 92.8847 39.582C92.6608 39.7676 92.6183 39.9518 92.7742 40.1983C93.2476 40.3402 93.7309 40.3945 94.1844 40.6052C95.3367 41.1354 96.36 41.932 97.1041 42.9129C98.1855 44.347 98.7836 46.1258 98.9877 47.8595C99.1238 49.4818 99.026 51.0949 98.5129 52.6577C98.4208 52.9559 98.2578 53.2422 98.1997 53.547C98.5413 53.9858 99.0118 54.3092 99.2882 54.8049C100.669 57.0158 100.496 59.6203 99.5164 61.9359C99.4384 62.0512 99.3959 62.356 99.1946 62.2871C97.8482 62.1108 96.5131 62.2686 95.246 62.7245C94.9639 62.816 94.6734 62.9658 94.3743 62.9909C94.1546 62.9525 93.9463 62.8875 93.7337 62.8239C92.9017 61.5409 91.9351 60.2525 90.7006 59.2796C91.8827 55.856 91.1017 51.9035 88.9431 48.9596C90.532 49.2115 92.0329 48.835 93.4616 48.2041C93.9236 47.9894 94.4395 47.8104 94.8505 47.5162C95.1283 47.2272 94.869 46.8667 94.4948 46.8548C93.0165 46.8203 91.7126 45.8448 90.7984 44.8335C90.0883 44.0024 89.3641 43.0878 89.486 41.9652L89.1288 41.8538C89.0055 41.8989 88.8836 41.9426 88.7617 41.9877C88.5293 42.7088 88.817 43.3291 89.1643 43.9613C90.0926 45.5028 91.4646 46.7859 93.2419 47.4486C92.1661 47.947 90.9076 48.3473 89.6929 48.277C88.5279 48.2147 87.377 47.7707 86.375 47.2312C84.7181 46.3458 83.4184 45.1675 81.8608 44.18C80.9282 43.5902 79.9035 43.1581 78.7838 43.0017C77.4798 42.8373 76.105 42.8744 74.845 43.2562C75.5523 42.3363 76.2836 41.427 77.0745 40.5681C77.2715 40.3508 77.4784 40.1294 77.6428 39.8882C77.7945 39.7106 77.7009 39.4031 77.6981 39.1923C77.3976 39.1817 77.1354 39.1671 76.8647 39.3089C74.9967 40.1652 73.1131 41.378 71.8701 42.9579C71.469 42.445 70.9913 42.0381 70.338 41.8326C69.0609 41.4244 67.5926 41.6126 66.3071 41.8923C63.7247 42.4105 61.0276 43.2509 58.3715 43.0534C56.6565 42.9606 54.9912 42.1282 53.9594 40.8452C52.6682 39.1631 52.4783 36.7866 53.486 34.9416C54.2726 33.4226 55.5992 32.235 57.2036 31.4768C57.1299 32.1064 57.0902 32.7029 57.3567 33.3033C57.7436 34.2643 58.6054 34.976 59.6428 35.2849C60.9524 35.6772 62.374 35.7395 63.6836 36.1504C63.9288 36.218 64.208 36.3359 64.466 36.3121C64.6602 36.2962 64.7367 36.0496 64.843 35.9264C64.6261 35.7315 64.4093 35.5579 64.1173 35.4704C62.9636 35.0993 61.688 34.9654 60.4975 34.7202C60.0071 34.6075 59.5082 34.4604 59.0901 34.1887C58.2553 33.6612 57.7847 32.6419 58.0129 31.7154C58.1887 31.1322 58.7485 31.0076 59.1482 30.5318C59.0901 30.4005 59.032 30.2693 58.9739 30.1368C58.3148 30.0612 57.6557 30.4668 57.0576 30.7041C54.9175 31.6239 53.1898 33.3086 52.4003 35.3949C51.5031 37.7436 52.2132 40.6159 54.2471 42.2621C53.7241 42.5537 53.1997 42.832 52.6299 43.0375C51.2721 43.5491 49.7471 43.5584 48.3071 43.4682C45.7701 43.3092 43.328 42.5113 41.4033 40.9287C41.1142 40.6755 40.9469 40.3415 40.6691 40.0843C40.3701 40.0472 40.1972 40.1493 40.1802 40.4369C40.1929 40.93 40.6705 41.3621 41.0476 41.6603C42.0694 42.4317 43.2203 43.0613 44.4449 43.504C43.9517 43.9573 43.4698 44.4173 43.0361 44.9209C41.8242 46.2941 40.5487 47.7349 39.6501 49.3082C39.4261 49.6979 39.2291 50.0478 38.7444 50.191C37.7225 50.4773 36.4682 50.4256 35.4789 50.0465C34.7291 49.7681 34.148 49.2075 33.8419 48.5129C33.3685 47.4884 33.4465 46.2491 33.6534 45.1741C34.0602 45.5121 34.4173 45.9071 34.9842 46.0038C35.9183 46.1682 36.7715 45.8819 37.6105 45.5307C37.9011 45.4047 38.1449 45.2391 38.2214 44.9315C38.2228 44.6744 37.9124 44.5233 37.7353 44.3603C36.9302 43.74 36.4583 42.8479 36.274 41.8989C36.0713 40.645 36.3109 39.4282 36.7587 38.2459C37.5425 36.2007 38.9414 34.3451 40.6734 32.9043C42.4068 31.4662 44.5824 30.6444 46.8642 30.3515C46.2732 31.3973 45.8721 32.4749 46.0011 33.6784C46.0748 34.1993 46.1584 34.8143 46.466 35.2663C46.6942 35.4691 47.0031 35.7806 47.3334 35.5592C47.7642 34.2351 48.6019 33.1111 49.6224 32.1236C51.6194 30.2905 54.2102 29.193 56.9598 28.7888C58.5742 28.5714 60.1502 28.5104 61.7759 28.4693C65.091 28.3381 68.2786 27.9193 71.2918 26.5461C71.9353 26.2518 72.4894 25.8476 73.0876 25.4871Z" fill="#592454"/>
<path d="M91.3583 64.5855C91.6828 65.0507 91.9068 65.5822 92.1605 66.0846C92.2795 66.3815 92.485 66.6731 92.2739 66.9793C92.108 67.0429 91.9564 67.0641 91.792 66.9832C91.5227 66.6386 91.388 66.1933 91.1868 65.8102C90.9798 65.341 90.6553 65.0123 90.729 64.4741C90.9401 64.4728 91.225 64.3747 91.3583 64.5855Z" fill="black"/>
</g>
</g>
<defs>
<filter id="filter0_d_116_980" x="0" y="0" width="139" height="136" filterUnits="userSpaceOnUse" color-interpolation-filters="sRGB">
<feFlood flood-opacity="0" result="BackgroundImageFix"/>
<feColorMatrix in="SourceAlpha" type="matrix" values="0 0 0 0 0 0 0 0 0 0 0 0 0 0 0 0 0 0 127 0" result="hardAlpha"/>
<feOffset dy="4"/>
<feGaussianBlur stdDeviation="2"/>
<feComposite in2="hardAlpha" operator="out"/>
<feColorMatrix type="matrix" values="0 0 0 0 0 0 0 0 0 0 0 0 0 0 0 0 0 0 0.25 0"/>
<feBlend mode="normal" in2="BackgroundImageFix" result="effect1_dropShadow_116_980"/>
<feBlend mode="normal" in="SourceGraphic" in2="effect1_dropShadow_116_980" result="shape"/>
</filter>
<clipPath id="clip0_116_980">
<rect width="108" height="101" fill="white" transform="translate(15 13)"/>
</clipPath>
</defs>
</svg>
